<svg xmlns="http://www.w3.org/2000/svg" viewBox="0 0 64 64"><defs><style>.cls-1{fill:#c2c2c2;}.cls-2{fill:#212a41;}.cls-3{fill:#e0e0e0;}.cls-4{fill:#db8e11;}.cls-5{fill:#e0c8a4;}.cls-6{fill:#fee6c2;}.cls-7{fill:#c2aa86;}.cls-8{fill:#e8d2a8;}.cls-9{fill:#fefefe;}.cls-10{fill:#6c696f;}.cls-11{fill:#4e4b51;}.cls-12{fill:#0079a8;}.cls-13{fill:#f9ac2f;}.cls-14{fill:#ffca4d;}.cls-15{fill:#d15241;}</style></defs><title>Artboard 1</title><g id="Layer_1" data-name="Layer 1"><path class="cls-1" d="M34,34H16a8,8,0,0,0-8,8V52H42V42A8,8,0,0,0,34,34Z"/><path class="cls-2" d="M42,52.5H8a.5.5,0,0,1-.5-.5V42A8.52,8.52,0,0,1,16,33.5H34A8.52,8.52,0,0,1,42.5,42V52A.5.5,0,0,1,42,52.5Zm-33.5-1h33V42A7.5,7.5,0,0,0,34,34.5H16A7.5,7.5,0,0,0,8.5,42Z"/><path class="cls-3" d="M10,50.5a.5.5,0,0,1-.5-.5V42A6.5,6.5,0,0,1,16,35.5a.5.5,0,0,1,0,1A5.5,5.5,0,0,0,10.5,42v8A.5.5,0,0,1,10,50.5Z"/><path class="cls-3" d="M16,42V52H50V42a8,8,0,0,0-8-8H24A8,8,0,0,0,16,42Z"/><path class="cls-2" d="M50,52.5H16a.5.5,0,0,1-.5-.5V42A8.52,8.52,0,0,1,24,33.5H42A8.52,8.52,0,0,1,50.5,42V52A.5.5,0,0,1,50,52.5Zm-33.5-1h33V42A7.5,7.5,0,0,0,42,34.5H24A7.5,7.5,0,0,0,16.5,42Z"/><path class="cls-1" d="M48,49.5a.5.5,0,0,1-.5-.5V42A5.5,5.5,0,0,0,42,36.5a.5.5,0,0,1,0-1A6.5,6.5,0,0,1,48.5,42v7A.5.5,0,0,1,48,49.5Z"/><circle class="cls-4" cx="47" cy="42" r="6"/><path class="cls-2" d="M47,48.5A6.5,6.5,0,1,1,53.5,42,6.5,6.5,0,0,1,47,48.5Zm0-12A5.5,5.5,0,1,0,52.5,42,5.5,5.5,0,0,0,47,36.5Z"/><circle class="cls-5" cx="39" cy="17" r="3"/><path class="cls-2" d="M39,20.5A3.5,3.5,0,1,1,42.5,17,3.5,3.5,0,0,1,39,20.5Zm0-6A2.5,2.5,0,1,0,41.5,17,2.5,2.5,0,0,0,39,14.5Z"/><path class="cls-5" d="M33,6H25a6,6,0,0,0-6,6v2a3,3,0,0,0,0,6v2a6,6,0,0,0,6,6h8a6,6,0,0,0,6-6V12A6,6,0,0,0,33,6Z"/><path class="cls-2" d="M33,28.5H25A6.5,6.5,0,0,1,18.5,22V20.46a3.5,3.5,0,0,1,0-6.92V12A6.5,6.5,0,0,1,25,5.5h8A6.5,6.5,0,0,1,39.5,12V22A6.5,6.5,0,0,1,33,28.5Zm-8-22A5.5,5.5,0,0,0,19.5,12v2a.5.5,0,0,1-.5.5,2.5,2.5,0,0,0,0,5,.5.5,0,0,1,.5.5v2A5.5,5.5,0,0,0,25,27.5h8A5.5,5.5,0,0,0,38.5,22V12A5.5,5.5,0,0,0,33,6.5Z"/><path class="cls-6" d="M25,26.5A4.51,4.51,0,0,1,20.5,22a.5.5,0,0,1,1,0A3.5,3.5,0,0,0,25,25.5a.5.5,0,0,1,0,1Z"/><path class="cls-7" d="M33,26.5a.5.5,0,0,1,0-1A3.5,3.5,0,0,0,36.5,22V13a.5.5,0,0,1,1,0v9A4.51,4.51,0,0,1,33,26.5Z"/><path class="cls-8" d="M25,28h8v6H25Z"/><path class="cls-2" d="M33,34.5H25a.5.5,0,0,1-.5-.5V28a.5.5,0,0,1,.5-.5h8a.5.5,0,0,1,.5.5v6A.5.5,0,0,1,33,34.5Zm-7.5-1h7v-5h-7Z"/><path class="cls-9" d="M18,50.5a.5.5,0,0,1-.5-.5V42A6.5,6.5,0,0,1,24,35.5a.5.5,0,0,1,0,1A5.5,5.5,0,0,0,18.5,42v8A.5.5,0,0,1,18,50.5Z"/><path class="cls-10" d="M23,4H40V7a4,4,0,0,1-4,4H19V8A4,4,0,0,1,23,4Z"/><path class="cls-2" d="M36,11.5H19a.5.5,0,0,1-.5-.5V8A4.51,4.51,0,0,1,23,3.5H40a.5.5,0,0,1,.5.5V7A4.51,4.51,0,0,1,36,11.5Zm-16.5-1H36A3.5,3.5,0,0,0,39.5,7V4.5H23A3.5,3.5,0,0,0,19.5,8Z"/><path class="cls-11" d="M36,9.5a.5.5,0,0,1,0-1A1.5,1.5,0,0,0,37.5,7V6a.5.5,0,0,1,1,0V7A2.5,2.5,0,0,1,36,9.5Z"/><path class="cls-11" d="M19,6h3v4a4,4,0,0,1-4,4H17V8A2,2,0,0,1,19,6Z"/><path class="cls-2" d="M18,14.5H17a.5.5,0,0,1-.5-.5V8A2.5,2.5,0,0,1,19,5.5h3a.5.5,0,0,1,.5.5v4A4.51,4.51,0,0,1,18,14.5Zm-.5-1H18A3.5,3.5,0,0,0,21.5,10V6.5H19A1.5,1.5,0,0,0,17.5,8Z"/><path class="cls-10" d="M19,12.23a.5.5,0,0,1-.5-.5V8a.5.5,0,0,1,1,0v3.73A.5.5,0,0,1,19,12.23Z"/><path class="cls-2" d="M19,20.5a3.51,3.51,0,0,1-2.48-6,3.59,3.59,0,0,1,4.95,0,.5.5,0,0,1,0,.71.49.49,0,0,1-.69,0,2.57,2.57,0,0,0-3.54,0,2.52,2.52,0,0,0,0,3.54h0a2.57,2.57,0,0,0,3.54,0,.5.5,0,0,1,.7.7A3.46,3.46,0,0,1,19,20.5Z"/><path class="cls-3" d="M39,34H35l2-3Z"/><path class="cls-2" d="M39,34.5H35a.5.5,0,0,1-.5-.5.54.54,0,0,1,.08-.28l2-3a.55.55,0,0,1,.84,0l2,3a.51.51,0,0,1-.14.7A.57.57,0,0,1,39,34.5Zm-3.07-1h2.14L37,31.9Z"/><path class="cls-1" d="M35,34H33V31h4Z"/><path class="cls-2" d="M35,34.5H33a.5.5,0,0,1-.5-.5V31a.5.5,0,0,1,.5-.5h4a.5.5,0,0,1,.5.5.54.54,0,0,1-.08.28l-2,3A.51.51,0,0,1,35,34.5Zm-1.5-1h1.23l1.34-2H33.5Z"/><path class="cls-3" d="M31,34H27l2-3Z"/><path class="cls-2" d="M31,34.5H27a.5.5,0,0,1-.5-.5.54.54,0,0,1,.08-.28l2-3a.55.55,0,0,1,.84,0l2,3a.51.51,0,0,1-.14.7A.57.57,0,0,1,31,34.5Zm-3.07-1h2.14L29,31.9Z"/><path class="cls-1" d="M27,34H20l2-3h7Z"/><path class="cls-2" d="M27,34.5H20a.5.5,0,0,1-.5-.5.54.54,0,0,1,.08-.28l2-3A.51.51,0,0,1,22,30.5h7a.5.5,0,0,1,.5.5.54.54,0,0,1-.08.28l-2,3A.51.51,0,0,1,27,34.5Zm-6.07-1h5.8l1.34-2h-5.8Z"/><path class="cls-12" d="M36,52H30l1-12h4Z"/><path class="cls-2" d="M36,52.5H30a.5.5,0,0,1-.5-.5v0l1-12a.5.5,0,0,1,.5-.46h4a.5.5,0,0,1,.5.46l1,12a.5.5,0,0,1-.46.54Zm-5.46-1h4.92l-.92-11H31.46Z"/><path class="cls-12" d="M35,34H31l-2,3,2,3h4l2-3Z"/><path class="cls-2" d="M35,40.5H31a.51.51,0,0,1-.42-.22l-2-3a.52.52,0,0,1,0-.56l2-3A.51.51,0,0,1,31,33.5h4a.51.51,0,0,1,.42.22l2,3a.52.52,0,0,1,0,.56l-2,3A.51.51,0,0,1,35,40.5Zm-3.73-1h3.46L36.4,37l-1.67-2.5H31.27L29.6,37Z"/><rect class="cls-13" x="41.5" y="56" width="14" height="4" rx="1"/><rect class="cls-13" x="41.5" y="52" width="14" height="4" rx="1"/><rect class="cls-13" x="41.5" y="48" width="14" height="4" rx="1"/><circle class="cls-13" cx="50" cy="42" r="6"/><path class="cls-2" d="M50,48.5A6.5,6.5,0,1,1,56.5,42,6.5,6.5,0,0,1,50,48.5Zm0-12A5.5,5.5,0,1,0,55.5,42,5.5,5.5,0,0,0,50,36.5Z"/><path class="cls-14" d="M43.5,58.5A.5.5,0,0,1,43,58V50a.5.5,0,0,1,1,0v8A.5.5,0,0,1,43.5,58.5Z"/><path class="cls-4" d="M53.5,58.5A.5.5,0,0,1,53,58V50a.5.5,0,0,1,1,0v8A.5.5,0,0,1,53.5,58.5Z"/><path class="cls-2" d="M54.5,60.5h-12A1.5,1.5,0,0,1,41,59V57a1.5,1.5,0,0,1,1.5-1.5h12A1.5,1.5,0,0,1,56,57v2A1.5,1.5,0,0,1,54.5,60.5Zm-12-4a.5.5,0,0,0-.5.5v2a.5.5,0,0,0,.5.5h12A.5.5,0,0,0,55,59V57a.5.5,0,0,0-.5-.5Z"/><path class="cls-2" d="M54.5,56.5h-12A1.5,1.5,0,0,1,41,55h0V53a1.5,1.5,0,0,1,1.5-1.5h12A1.5,1.5,0,0,1,56,53v2a1.5,1.5,0,0,1-1.5,1.5Zm-12-4a.5.5,0,0,0-.5.5v2a.5.5,0,0,0,.5.5h12A.5.5,0,0,0,55,55V53a.5.5,0,0,0-.5-.5Z"/><path class="cls-2" d="M54.5,52.5h-12A1.5,1.5,0,0,1,41,51V49a1.5,1.5,0,0,1,1.5-1.5h12A1.5,1.5,0,0,1,56,49v2A1.5,1.5,0,0,1,54.5,52.5Zm-12-4a.5.5,0,0,0-.5.5v2a.5.5,0,0,0,.5.5h12A.5.5,0,0,0,55,51V49a.5.5,0,0,0-.5-.5Z"/><path class="cls-7" d="M8,52H28v8H10a2,2,0,0,1-2-2V52Z"/><path class="cls-2" d="M28,60.5H10A2.5,2.5,0,0,1,7.5,58V52a.5.5,0,0,1,.5-.5H28a.5.5,0,0,1,.5.5v8A.5.5,0,0,1,28,60.5Zm-19.5-8V58A1.5,1.5,0,0,0,10,59.5H27.5v-7Z"/><path class="cls-2" d="M50.5,44.5h-2a.5.5,0,0,1,0-1h2a.5.5,0,0,0,0-1h-1a1.5,1.5,0,0,1,0-3h2a.5.5,0,0,1,0,1h-2a.5.5,0,0,0,0,1h1a1.5,1.5,0,0,1,0,3Z"/><path class="cls-2" d="M50,40.5a.5.5,0,0,1-.5-.5V39a.5.5,0,0,1,1,0v1A.5.5,0,0,1,50,40.5Z"/><path class="cls-2" d="M50,45.5a.5.5,0,0,1-.5-.5V44a.5.5,0,0,1,1,0v1A.5.5,0,0,1,50,45.5Z"/><path class="cls-5" d="M44,52H39V50.5a1.5,1.5,0,0,0-3,0V52H16v6a2,2,0,0,0,2,2H44a2,2,0,0,0,2-2V54A2,2,0,0,0,44,52Z"/><path class="cls-2" d="M44,60.5H18A2.5,2.5,0,0,1,15.5,58V52a.5.5,0,0,1,.5-.5H35.5v-1a2,2,0,0,1,4,0v1H44A2.5,2.5,0,0,1,46.5,54v4A2.5,2.5,0,0,1,44,60.5Zm-27.5-8V58A1.5,1.5,0,0,0,18,59.5H44A1.5,1.5,0,0,0,45.5,58h0V54A1.5,1.5,0,0,0,44,52.5H39a.5.5,0,0,1-.5-.5V50.5a1,1,0,0,0-2,0V52a.5.5,0,0,1-.5.5Z"/><path class="cls-6" d="M18,58.5a.5.5,0,0,1-.5-.5V54a.5.5,0,0,1,1,0v4A.5.5,0,0,1,18,58.5Z"/><path class="cls-5" d="M10,58.5a.5.5,0,0,1-.5-.5V54a.5.5,0,0,1,1,0v4A.5.5,0,0,1,10,58.5Z"/><path class="cls-2" d="M24,52.5a.5.5,0,0,1-.5-.5V46a.5.5,0,0,1,1,0v6A.5.5,0,0,1,24,52.5Z"/></g><g id="Layer_2" data-name="Layer 2"><path class="cls-15" d="M32.8,15A20.16,20.16,0,1,0,53,35.14,20.16,20.16,0,0,0,32.8,15ZM18.34,35.14A14.5,14.5,0,0,1,32.8,20.63,14.22,14.22,0,0,1,41,23.16L20.87,43.31A14.22,14.22,0,0,1,18.34,35.14ZM32.8,49.6a14.29,14.29,0,0,1-8.17-2.52L44.73,27A14.46,14.46,0,0,1,32.8,49.6Z"/></g></svg>